<?xml version="1.0" encoding="UTF-8" standalone="no" ?>
<!DOCTYPE svg PUBLIC "-//W3C//DTD SVG 1.1//EN" "http://www.w3.org/Graphics/SVG/1.1/DTD/svg11.dtd">
<svg xmlns="http://www.w3.org/2000/svg" xmlns:xlink="http://www.w3.org/1999/xlink" version="1.1" width="50" height="50" viewBox="46.82 46.82 50 50" xml:space="preserve">
<desc>Created with Fabric.js 5.2.4</desc>
<defs>
</defs>
<rect x="0" y="0" width="100%" height="100%" fill="transparent"></rect>
<g transform="matrix(1 0 0 1 25 25)" id="c16c6e2a-550b-4b65-9194-411fd54edecc"  >
<rect style="stroke: none; stroke-width: 1; stroke-dasharray: none; stroke-linecap: butt; stroke-dashoffset: 0; stroke-linejoin: miter; stroke-miterlimit: 4; fill: rgb(255,255,255); fill-rule: nonzero; opacity: 1; visibility: hidden;" vector-effect="non-scaling-stroke"  x="-25" y="-25" rx="0" ry="0" width="50" height="50" />
</g>
<g transform="matrix(Infinity NaN NaN Infinity 0 0)" id="abc41c03-50b6-4dc1-bf75-593c72c31953"  >
</g>
<g transform="matrix(0.1 0 0 0.1 24.28 26.28)"  >
<rect style="stroke: none; stroke-width: 1; stroke-dasharray: none; stroke-linecap: butt; stroke-dashoffset: 0; stroke-linejoin: miter; stroke-miterlimit: 4; fill: rgb(255,255,255); fill-opacity: 0; fill-rule: nonzero; opacity: 1;" vector-effect="non-scaling-stroke"  x="-50" y="-50" rx="0" ry="0" width="100" height="100" />
</g>
<g transform="matrix(0.1 0 0 0.1 71.23 73.23)"  >
<rect style="stroke: none; stroke-width: 1; stroke-dasharray: none; stroke-linecap: butt; stroke-dashoffset: 0; stroke-linejoin: miter; stroke-miterlimit: 4; fill: rgb(255,255,255); fill-rule: nonzero; opacity: 1; visibility: hidden;" vector-effect="non-scaling-stroke"  x="-540" y="-540" rx="0" ry="0" width="1080" height="1080" />
</g>
<g transform="matrix(0.44 0 0 0.43 72.52 71.65)"  >
<path style="stroke: rgb(255,255,255); stroke-width: 1; stroke-dasharray: none; stroke-linecap: butt; stroke-dashoffset: 0; stroke-linejoin: miter; stroke-miterlimit: 4; fill: rgb(255,255,255); fill-rule: nonzero; opacity: 1;" vector-effect="non-scaling-stroke"  transform=" translate(-55.78, -61.44)" d="M 79.86 65.67 C 89.01344828072307 65.69712326801107 97.42022066339595 70.72451923303095 101.77517114490274 78.77565315336562 C 106.13012162640953 86.8267870737003 105.7368607017516 96.61422176969226 100.75000000000003 104.28999999999996 L 111.56 116.07 L 104.10000000000001 122.88 L 93.68 111.42 C 84.77117352271813 117.40648428595715 73.03524510389965 117.03823819656822 64.5192582261736 110.50500386687148 C 56.00327134844755 103.97176953717474 52.607910671159964 92.73170072488045 56.08266655604857 82.57634475629115 C 59.55742244093718 72.42098878770184 69.12676349038388 65.6169214075714 79.85999999999999 65.67 Z M 19 65.93 C 17.504615616783852 65.84918982191873 16.3488068516065 64.58669101687885 16.4 63.09 C 16.364749563539327 62.36772964974227 16.61962581252415 61.661327068537894 17.107922311918475 61.12795704612255 C 17.5962188113128 60.59458702370721 18.277431503450167 60.27849245383966 19 60.25 L 52.61 60.25 C 54.10293015438744 60.335987992497266 55.255819321738656 61.595297698373216 55.21 63.09 C 55.24525043646067 63.812270350257734 54.99037418747585 64.51867293146212 54.50207768808153 65.05204295387746 C 54.0137811886872 65.5854129762928 53.33256849654983 65.90150754616035 52.61 65.93 Z M 83.36 17.27 L 92.68 17.27 C 96.34751353531695 17.286381074850365 99.3181080323506 20.252515219786357 99.34 23.919999999999998 L 99.34 54.82 C 99.14 56.91 94.03 56.93 93.59 54.82 L 93.59 23.92 C 93.59395430648954 23.669409289065424 93.49660126189383 23.427829511735315 93.32000000000001 23.25 C 93.14348237593826 23.07141729876436 92.90101925633245 22.973708280415753 92.65 22.98 L 83.32 22.98 L 83.32 54.82 C 82.83 56.71 78.57 57 77.61 54.82 L 77.61 6.66 C 77.60416330259423 6.414295635010552 77.50804732651557 6.179345471262711 77.34 6 C 77.16217048826469 5.823398738106178 76.92059071093458 5.726045693510462 76.67 5.73 L 6.670000000000002 5.73 C 6.419409289065423 5.726045693510462 6.177829511735315 5.823398738106178 6 6 C 5.827334778833955 6.184423050140825 5.73087248340657 6.4273651275135 5.73 6.68 L 5.73 85.79 C 5.730872483406568 86.0426348724865 5.827334778833953 86.28557694985919 6 86.47000000000001 C 6.177829511735315 86.64660126189384 6.419409289065423 86.74395430648954 6.67 86.74000000000001 L 44.74 86.74000000000001 C 47.620000000000005 87.03000000000002 47.74 92.01 44.74 92.45 L 21.66 92.45 L 21.66 103.06 C 21.654482506877645 103.31095429314038 21.751745118115466 103.55326614973676 21.92923948418936 103.73076051581064 C 22.10673385026325 103.90825488188453 22.349045706859616 104.00551749312235 22.6 104 L 44.74 104 C 46.83 104.24 47.5 109 44.74 109.71 L 22.64 109.71 C 20.867000452476965 109.70798165144929 19.170797499710428 108.98619316091033 17.94 107.71 C 16.67237876385848 106.47331955008723 15.952201007917202 104.78090182362523 15.940000000000001 103.00999999999999 L 15.940000000000001 92.45 L 6.66 92.45 C 2.9886094005703496 92.43357295014641 0.016427049853588116 89.46139059942966 -8.881784197001252e-16 85.79 L 0 6.66 C 0.012805725225115834 4.900901391131577 0.7337360604648786 3.221133710022931 1.9999999999999982 2.0000000000000027 C 3.2353911796947266 0.7304956683233328 4.92863519064013 0.009966301963586055 6.699999999999998 0 L 76.7 0 C 78.47299954752305 0.0020183485507069463 80.16920250028957 0.7238068390896562 81.4 1.9999999999999956 C 82.66575035308138 3.2379596294991506 83.38558002501564 4.929559358544678 83.4 6.700000000000001 L 83.4 17.27 Z M 18.93 26.44 C 17.43706984561257 26.354012007502735 16.284180678261347 25.094702301626786 16.33 23.600000000000005 C 16.29474956353933 22.87772964974227 16.54962581252415 22.17132706853789 17.037922311918475 21.63795704612255 C 17.526218811312802 21.10458702370721 18.207431503450163 20.788492453839666 18.929999999999996 20.76 L 63.86 20.76 C 65.3578612526395 20.83556043874848 66.51664061434333 22.10130404922498 66.46 23.599999999999998 C 66.49525043646067 24.32227035025773 66.24037418747584 25.028672931462115 65.75207768808151 25.56204295387745 C 65.26378118868719 26.095412976292792 64.58256849654983 26.411507546160337 63.85999999999999 26.44 Z M 18.93 46.18 C 17.43862827806059 46.09923056585779 16.284365514649476 44.84285994260647 16.33 43.35 C 16.29474956353933 42.62772964974227 16.54962581252415 41.92132706853789 17.03792231191848 41.38795704612255 C 17.526218811312802 40.85458702370722 18.207431503450167 40.538492453839666 18.93 40.510000000000005 L 63.86 40.510000000000005 C 65.3578612526395 40.58556043874848 66.51664061434333 41.851304049224986 66.46 43.35000000000001 C 66.49523417574521 44.071287513477294 66.24005739273218 44.77662985738359 65.75148915242714 45.308417595869464 C 65.2629209121221 45.840205334355346 64.5816834706999 46.15411385781506 63.85999999999999 46.18000000000001 Z M 75.61 89.28 C 75.2 88.63 74.42 87.73 74.42 86.96000000000001 C 74.44378988714722 86.44743117011704 74.77603051494445 86.00048842081837 75.26 85.83000000000001 C 75.26 85.18 75.19000000000001 84.52000000000001 75.19000000000001 83.83000000000001 C 75.19000000000001 83.44000000000001 75.19000000000001 83.05000000000001 75.19000000000001 82.67000000000002 C 75.20932330251433 82.46880121642211 75.25297529970383 82.27068830610057 75.32000000000001 82.08000000000001 C 75.62098142004238 81.09538187689328 76.28139695481407 80.26004547074965 77.17 79.74000000000001 C 77.48275139477171 79.54024897393477 77.8185253101114 79.37907749457172 78.17 79.26 C 78.8 79.03 78.5 78.02000000000001 79.17 78.01 C 81.1816574992255 78.23263802493013 83.06293744462728 79.11525721426815 84.52 80.52000000000001 C 85.17997014610427 81.20337720681066 85.55841263005723 82.11021108345267 85.58 83.06000000000002 L 85.52 85.91000000000001 C 85.83309650233123 85.97654010149262 86.08997074934716 86.19941628640349 86.2 86.50000000000001 C 86.42 87.39000000000001 85.49000000000001 88.50000000000001 85.06 89.23000000000002 C 84.63 89.96000000000002 83.13 91.69000000000001 83.13 91.71000000000002 C 83.13781134470466 91.83087604041698 83.18327090178897 91.94627337763103 83.25999999999999 92.04000000000002 C 85.63999999999999 95.30000000000003 92.60999999999999 92.78000000000002 92.60999999999999 99.27000000000002 L 68 99.27000000000002 C 68 92.78000000000003 75 95.27000000000002 77.35 92.04000000000002 C 77.43610144442388 91.94394201734174 77.49481448052771 91.82651594513409 77.52 91.70000000000002 C 77.52 91.70000000000002 75.75999999999999 89.50000000000001 75.6 89.25000000000001 Z M 79.88 70.88 C 90.84576485511815 70.89104307192041 99.72735572162642 79.7875519617528 99.7199955264746 90.75331990725981 C 99.71263533132279 101.71908785276682 90.8191098449854 110.60366613036544 79.85334004599193 110.59998881281243 C 68.88757024699846 110.59631149525941 60.00000556046058 101.70577041557732 60 90.74 C 59.99999732738034 85.46933345906906 62.09512937829821 80.41483145227066 65.823928612321 76.68978352532434 C 69.5527278463438 72.96473559837803 74.60933613168805 70.87469217870935 79.88000000000001 70.88 Z" stroke-linecap="round" />
</g>
</svg>